<?xml version="1.0" encoding="UTF-8" standalone="no"?>
<svg width="140px" height="140px" viewBox="0 0 140 140" version="1.1" xmlns="http://www.w3.org/2000/svg" xmlns:xlink="http://www.w3.org/1999/xlink">
    <!-- Generator: Sketch 40 (33762) - http://www.bohemiancoding.com/sketch -->
    <title>tracking-icon-confirmed</title>
    <desc>Created with Sketch.</desc>
    <defs>
        <rect id="path-1" x="0" y="0" width="140" height="140" rx="70"></rect>
        <mask id="mask-2" maskContentUnits="userSpaceOnUse" maskUnits="objectBoundingBox" x="0" y="0" width="140" height="140" fill="white">
            <use xlink:href="#path-1"></use>
        </mask>
    </defs>
    <g id="desktop-round-2" stroke="none" stroke-width="1" fill="none" fill-rule="evenodd">
        <g id="tracking-ui-sprite" transform="translate(-340.000000, -20.000000)">
            <g id="sprite">
                <g id="tracking-icon-confirmed" transform="translate(340.000000, 20.000000)">
                    <use id="Rectangle-8" stroke="#52D499" mask="url(#mask-2)" stroke-width="5" xlink:href="#path-1"></use>
                    <g id="Group" transform="translate(40.000000, 25.000000)" fill="#52D499">
                        <path d="M32.357071,78.0760969 L31.5374094,78.0760969 L14.6979894,78.0760969 L5.77614549,78.0760969 L5.52507852,78.0760969 C5.25607821,78.0581636 5.1395114,78.0312635 5.01397792,78.0043635 C4.89741111,77.9774635 4.78084431,77.9415968 4.67324418,77.8967634 C4.43114389,77.7801966 4.33251044,77.7174298 4.23387699,77.6636298 C3.89314325,77.4215295 3.70484303,77.2242626 3.53447616,77.018029 C3.399976,76.7938621 3.34617594,76.686262 3.29237587,76.5876285 C3.18477575,76.3455282 3.15787571,76.2289614 3.122009,76.1123946 C3.08614229,75.9958278 3.06820894,75.879261 3.05027559,75.7537275 L3.05027559,75.4667938 L3.05027559,72.5795237 L3.05027559,59.8020086 L3.05027559,42.3438878 L3.05027559,26.3204355 L3.05027559,17.8648588 L3.05027559,17.6406918 C3.05027559,17.4882583 3.05924226,17.3627248 3.06820894,17.2371914 C3.13097568,16.9771577 3.16684239,16.8605909 3.2027091,16.7440241 C3.22960913,16.6722907 3.25650916,16.5915906 3.2834092,16.5198572 C3.35514261,16.385357 3.41790936,16.2867236 3.47170942,16.1880901 C3.68690968,15.8832231 3.85727654,15.7128562 4.02764341,15.5604227 C4.24284367,15.4079892 4.34147712,15.3452224 4.44907725,15.2914224 C4.71807757,15.1569222 4.87051108,15.1120888 5.03191127,15.0762221 C5.14847808,15.0403554 5.26504488,15.0224221 5.39057836,15.0044887 L5.69544539,15.0044887 L6.0092791,15.0044887 L13.6040548,15.0044887 L15.1732233,15.0044887 C14.7517895,14.5830549 14.3393223,14.1705877 13.9178885,13.7491539 L13.9178885,17.0040577 L13.9178885,18.5104595 C13.9178885,19.4609273 14.6441894,20.2679283 15.6215572,20.2679283 L19.2440948,20.2679283 L35.7876145,20.2679283 L42.4588224,20.2679283 L44.0279909,20.2679283 C44.2700912,20.2679283 44.5211582,20.2589616 44.7542918,20.1603282 C45.4267926,19.8823612 45.8930598,19.3084938 45.8930598,18.5552929 L45.8930598,18.080059 C45.8930598,16.6274573 45.9109406,14.9865554 45.9109406,14.9865554 C45.9109406,14.9865554 49.4259131,14.9865554 51.1833994,14.9865554 L54.0437695,14.9865554 C54.196203,14.9865554 54.3486365,14.995522 54.50107,15.0044887 C54.7611037,15.0672554 54.8776705,15.1031222 54.9942373,15.1389889 C55.2811709,15.246589 55.4156711,15.3272891 55.5501713,15.4079892 C55.7653715,15.551456 55.8550383,15.6321561 55.9357384,15.7128562 C56.0164385,15.7935563 56.0971386,15.8832231 56.1778387,15.9639232 C56.3302722,16.1791234 56.3930389,16.2777569 56.446839,16.385357 C56.6261725,16.7709241 56.7158393,17.0584492 56.7158393,17.309423 L56.7158393,17.6406918 L59.2444423,17.6406918 C59.2085756,15.2555557 57.5318069,13.1035531 55.1735708,12.6103859 C54.2769031,12.4220856 53.3085019,12.4938191 52.3939008,12.4938191 L44.8708586,12.4938191 L44.6018583,12.4938191 C43.9203908,12.4938191 43.3465234,13.0676864 43.3465234,13.7491539 L43.3465234,16.2149901 L43.3465234,17.7572586 C43.3465234,17.7572586 41.7863216,17.7662253 41.0151873,17.7662253 L33.465245,17.7662253 L17.7018263,17.7662253 L16.1416245,17.7662253 L15.7201906,17.7662253 C15.4063569,17.7662253 15.7739907,17.7124253 15.9084909,17.8110587 C16.0609244,17.9634922 16.2043912,18.1069591 16.3568247,18.2593926 C16.4016581,18.2504259 16.4016581,18.080059 16.4016581,17.9096922 L16.4016581,16.2060235 L16.4016581,13.7401872 C16.4016581,13.0587197 15.8277908,12.4848524 15.1463233,12.4848524 L8.60064884,12.4848524 L5.74027878,12.4848524 C3.78554313,12.4848524 1.92944092,13.5608537 1.05967322,15.3362558 C0.503739228,16.4839905 0.521672583,17.6227585 0.521672583,18.8422266 L0.521672583,23.083465 L0.521672583,37.699149 L0.521672583,55.37247 L0.521672583,69.988154 L0.521672583,74.2293924 C0.521672583,75.4578272 0.53063926,76.5607285 1.05967322,77.7353632 C1.84874083,79.4838653 3.78554313,80.5867666 5.66854536,80.5867666 L6.38587955,80.5867666 L10.5105511,80.5867666 L25.7359692,80.5867666 L33.3716057,80.5867666 L32.357071,78.0760969 Z M59.2444423,60.5188225 C59.2444423,55.6500902 59.2444423,50.7813578 59.2444423,45.9126254 L59.2444423,29.1180388 L59.2444423,18.6539264 C59.2444423,18.304226 59.2444423,17.9903923 59.2444423,17.6406918 L56.7158393,17.6406918 C56.7158393,19.7657944 56.7158393,21.8819302 56.7158393,24.0070327 L56.7158393,39.088984 L56.7158393,56.7443716 L56.7158393,58.3681195 L59.2444423,60.5188225 Z" id="Shape"></path>
                        <path d="M36.0346438,7.45835505 L36.0346438,7.05571636 C36.0346438,5.94384838 35.8015102,4.91268049 35.3083429,3.9173793 C34.1875082,1.61294323 31.5154384,0.223108251 28.9958021,0.49210857 C26.7451661,0.734208857 24.691797,2.13301052 23.7771959,4.23121301 C23.3366528,5.2363959 23.2310159,6.2544598 23.2077359,7.29728938 L23.2077359,7.45025017 L17.8502222,7.45025017 L15.3305858,7.45025017 C14.3352847,7.45025017 13.6358838,8.28415116 13.6358838,9.24358563 L13.6358838,10.3016536 L13.6358838,18.0398961 L13.6358838,18.7034302 C13.6358838,19.653898 14.4428848,20.3891655 15.3754192,20.3891655 L16.6397207,20.3891655 L31.6320052,20.3891655 L43.8177197,20.3891655 C44.4902205,20.3891655 44.974421,20.0842985 45.3779215,19.5552645 C45.6469218,19.2055641 45.6110551,18.6854968 45.6110551,18.2550963 L45.6110551,14.7580922 L45.6110551,10.6065206 L45.6110551,9.36015243 L45.6110551,9.1359855 C45.6110551,8.32001787 45.162787,7.90226078 44.9317663,7.75184016 C44.7007456,7.60141954 44.3610699,7.46007864 43.972828,7.45921684 C43.5845861,7.45835505 43.1003855,7.45921684 43.1003855,7.45921684 C43.1003855,7.45921684 43.0976229,10.7226055 43.1003855,10.7320541 C43.0914188,11.810266 43.0914188,12.8403286 43.0914188,13.8703911 L43.0914188,17.2239284 C43.0914188,17.5825955 43.0824521,17.8784959 43.0824521,17.8784959 L40.7600827,17.8784959 L33.2101404,17.8784959 L17.4467217,17.8784959 C16.9266544,17.8784959 16.1465535,18.028055 16.1465535,17.8741843 L16.1465535,17.2956619 L16.1465535,13.9690246 L16.1465535,10.6154873 C16.1465535,10.2568202 16.1561482,9.96091981 16.1561482,9.96091981 L16.6666208,9.96091981 L19.8497912,9.96091981 L24.46763,9.96091981 C25.1490975,9.96091981 25.7229649,9.38705247 25.7229649,8.70558499 L25.7229649,7.25298327 C25.7229649,6.50874905 25.7319315,6.23078205 25.9560985,5.5403479 C25.9829985,5.46861448 26.0098985,5.38791438 26.0367986,5.31618097 C25.9471318,5.55828125 26.0905986,5.20858084 26.108532,5.18168081 C26.2161321,4.97544723 26.3326989,4.76921365 26.4671991,4.58091343 C26.5478992,4.46434662 26.6285993,4.37467985 26.7003327,4.28501307 C26.8527662,4.1146462 27.0320997,3.95324601 27.2024666,3.8008125 C27.3100667,3.71114573 27.4087002,3.64837898 27.5073336,3.58561224 C27.7046005,3.46007876 27.9198008,3.35247863 28.1260344,3.25384518 C28.2605345,3.20004512 28.3771013,3.16417841 28.4936681,3.1283117 C28.6102349,3.09244499 28.7268018,3.06554496 28.8433686,3.03864493 C28.8613019,3.02967825 29.2558357,2.96691151 28.9868354,3.00277822 C30.887771,2.75171125 32.4659062,3.71114573 33.2460071,5.43274777 C33.2011737,5.35204767 33.2101404,5.37894771 33.2729071,5.52241454 C33.3177405,5.6569147 33.3536072,5.79141486 33.389474,5.92591502 C33.4253407,6.06041518 33.4522407,6.20388202 33.4791407,6.33838218 C33.443274,6.14111528 33.4970741,6.6073825 33.4970741,6.58048247 C33.5150074,6.8046494 33.5060408,7.02881633 33.5060408,7.24401659 L33.5060408,8.69661831 C33.5060408,9.37808579 34.0799081,9.95195314 34.7613756,9.95195314 C37.536828,9.95195314 43.1003855,9.95195341 43.1003855,9.95195341 L43.1003855,7.45921684 L36.0346438,7.45835505 Z" id="Shape"></path>
                        <ellipse id="Oval" cx="29.7260196" cy="6.71341232" rx="1.88300224" ry="1.88300224"></ellipse>
                        <path d="M11.6126494,34.6624904 L20.6869268,34.6624904 L37.9477806,34.6624904 L48.4477598,34.6624904 L48.5463932,34.6624904 C49.2278607,34.6624904 49.8017281,34.088623 49.8017281,33.4071556 C49.8017281,32.7256881 49.2278607,32.1518207 48.5463932,32.1518207 L39.4721158,32.1518207 L22.211262,32.1518207 L11.7112828,32.1518207 L11.6126494,32.1518207 C10.9311819,32.1518207 10.3573146,32.7256881 10.3573146,33.4071556 C10.3573146,34.088623 10.9222152,34.6624904 11.6126494,34.6624904 L11.6126494,34.6624904 L11.6126494,34.6624904 Z" id="Shape"></path>
                        <path d="M11.6126494,48.8696239 L20.6869268,48.8696239 L37.9477806,48.8696239 L48.4477598,48.8696239 L48.5463932,48.8696239 C49.2278607,48.8696239 49.8017281,48.2957566 49.8017281,47.6142891 C49.8017281,46.9328216 49.2278607,46.3589543 48.5463932,46.3589543 L39.4721158,46.3589543 L22.211262,46.3589543 L11.7112828,46.3589543 L11.6126494,46.3589543 C10.9311819,46.3589543 10.3573146,46.9328216 10.3573146,47.6142891 C10.3573146,48.2957566 10.9222152,48.8696239 11.6126494,48.8696239 L11.6126494,48.8696239 L11.6126494,48.8696239 Z" id="Shape"></path>
                        <path d="M11.6126494,64.1696139 L19.5212588,64.1696139 C20.2027262,64.1696139 20.7765936,63.5957466 20.7765936,62.9142791 C20.7765936,62.2328116 20.2027262,61.6589443 19.5212588,61.6589443 L11.6126494,61.6589443 C10.9311819,61.6589443 10.3573146,62.2328116 10.3573146,62.9142791 C10.3573146,63.5957466 10.9222152,64.1696139 11.6126494,64.1696139 L11.6126494,64.1696139 L11.6126494,64.1696139 Z" id="Shape"></path>
                        <path d="M62.5899377,73.0313672 C62.573153,73.2679129 62.547976,73.4960106 62.5144067,73.7241082 C62.547976,73.4706664 62.497622,73.8508291 62.4892297,73.8677252 C62.4640527,74.0197903 62.4388757,74.1718554 62.4136987,74.3239205 C62.2458521,75.2532073 61.9856898,76.1740459 61.6583889,77.0610923 C61.6164272,77.1624691 61.5744656,77.2722939 61.5408963,77.3736706 C61.5325039,77.3905667 61.3898343,77.7284892 61.4905423,77.5088396 C61.406619,77.711593 61.305911,77.9143465 61.2135953,78.1171 C61.0037871,78.5563991 60.7771941,78.9788022 60.5338165,79.3927572 C60.3072236,79.7729199 60.063846,80.1446346 59.812076,80.5079012 C59.5099521,80.9387524 59.4344211,81.0401291 59.0483739,81.4878763 C56.6397749,84.3179768 53.551397,86.0413812 49.875556,86.6665378 C49.7580633,86.6834339 49.648963,86.70033 49.5314704,86.7172261 C49.774848,86.6834339 49.4055854,86.7341223 49.3888008,86.7341223 C49.1538155,86.7594664 48.9272225,86.7848106 48.6922373,86.8017067 C48.1719127,86.8439471 47.6515882,86.8523951 47.1312637,86.835499 C46.0066913,86.8101548 45.2765585,86.7172261 44.2107324,86.4806804 C43.7323696,86.3708556 43.262399,86.2356867 42.7924285,86.0920696 C42.5574432,86.0160371 42.3308503,85.9315565 42.1042573,85.8470758 C41.9867647,85.8048355 41.8776644,85.7625952 41.7685641,85.7119069 C41.6342868,85.6612185 41.5587558,85.6274263 41.4916171,85.593634 C40.5768531,85.1881271 39.7040506,84.6812434 38.8732098,84.1152233 C38.1514693,83.6167877 37.4549059,83.0254234 36.7331654,82.2988902 C35.9946402,81.5470128 35.4911004,80.9218562 34.9623835,80.1192904 C33.6531799,78.1593403 32.8391237,75.9459483 32.5034305,73.6142834 C32.3523685,72.5667238 32.3523685,71.3924434 32.4362918,70.3026435 C32.4530765,70.0660978 32.4782535,69.8380001 32.5034305,69.6014544 C32.5453921,69.2212917 32.4698612,69.8295521 32.5202151,69.4578374 C32.5369998,69.3395645 32.5537845,69.2297397 32.5789615,69.1114669 C32.6628848,68.6214793 32.7719851,68.1399398 32.89787,67.6584004 C33.0153627,67.2191012 33.14964,66.7882501 33.3007019,66.357399 C33.3762329,66.1461974 33.4601562,65.9349959 33.5440795,65.7237944 C33.6783568,65.3774239 33.4517639,65.9349959 33.6028259,65.5886254 C33.6615722,65.4534564 33.7287108,65.3182874 33.7874572,65.1831185 C34.1818967,64.3467604 34.6518673,63.5441946 35.1721918,62.7754211 C35.2980768,62.5895637 35.4323541,62.4121544 35.558239,62.2347452 C35.4155694,62.4290506 35.63377,62.1418165 35.6421623,62.1249204 C35.709301,62.0404398 35.784832,61.9559591 35.8519706,61.8714785 C36.1540945,61.4997638 36.4813955,61.1533933 36.8170887,60.8154709 C37.1276049,60.5028926 37.4549059,60.2072105 37.7822068,59.9115284 C37.9500534,59.7679113 38.1179,59.6327423 38.294139,59.4891253 C38.1095077,59.6411904 38.394847,59.4130928 38.4032393,59.4046447 C38.5207319,59.3201641 38.6382246,59.2272354 38.7641095,59.1427548 C39.5194193,58.610527 40.3166908,58.1458836 41.1559239,57.7488247 C41.2566319,57.6981364 41.3573398,57.6558961 41.4580478,57.6052077 C41.4748325,57.5967596 41.8105257,57.4531426 41.5839328,57.5460713 C41.7937411,57.4615907 41.995157,57.37711 42.2049653,57.3010775 C42.6665435,57.1321163 43.1281217,56.9884992 43.5980923,56.8533303 C44.0344935,56.7350574 44.479287,56.6336807 44.9324729,56.5576481 C45.0415732,56.540752 45.1590659,56.5154078 45.2681662,56.4985117 C45.2849508,56.4985117 45.6626057,56.4393753 45.4108358,56.4731675 C45.6793904,56.4393753 45.947945,56.4140311 46.2164996,56.3886869 C47.3326796,56.2957582 48.4488597,56.3295505 49.5566474,56.4647194 C51.7302611,56.7266093 53.8954826,57.5883116 55.7837571,58.8132804 C59.4092442,61.1618414 61.7087429,64.8789883 62.447268,69.0776746 C62.5311913,69.5338699 62.547976,69.7281753 62.5899377,70.2181629 C62.6318993,70.7081504 62.648684,71.6120929 62.648684,71.6120929 L64.9985367,71.6120929 C64.981752,67.05014 63.2109702,62.6655963 60.0806306,59.3708525 C56.7153059,55.8311149 51.8897154,53.8880608 47.038948,54.0147817 C43.0525907,54.1161585 39.2508647,55.6283614 36.1960562,58.196572 C33.2587403,60.6634058 31.1942268,64.1777992 30.4053477,67.9371864 C29.423445,72.6005161 30.3801707,77.5848721 33.0573243,81.5216686 C35.4323541,85.0191659 39.0242718,87.5789284 43.1029447,88.6518321 C47.1228713,89.7162878 51.4281372,89.2347483 55.1627246,87.4437594 C58.5867957,85.8048355 61.4401883,82.9240467 63.1354392,79.5194781 C64.3607195,77.0695404 64.9901444,74.3577128 64.9985367,71.6120929 C64.9985367,71.6120929 64.4614275,71.6120929 63.8236103,71.6120929 C63.1774008,71.6120929 62.648684,71.6120929 62.648684,71.6120929 C62.648684,71.6120929 62.623507,72.5582758 62.5899377,73.0313672 Z" id="Shape"></path>
                        <path d="M44.5386603,75.3137613 C43.9847664,75.8713333 43.7083089,76.150612 43.7083089,76.150612 L39.6878929,72.1034981 C38.6136745,71.0221462 36.9519929,72.6948623 38.0262113,73.7762141 C39.6459312,75.4066899 41.2572588,77.0287177 42.8769787,78.6591934 C43.3301646,79.1153887 44.0854744,79.1153887 44.5386603,78.6591934 C47.5011532,75.6770279 50.4636461,72.6948623 53.4177467,69.7211448 C53.9716405,69.1635728 54.5255344,68.6060008 55.0794282,68.0484287 C56.1536466,66.975525 54.491965,65.3028089 53.4177467,66.3757126 C50.4552538,69.3578782 47.4927609,72.3400438 44.5386603,75.3137613 Z" id="Shape"></path>
                    </g>
                </g>
            </g>
        </g>
    </g>
</svg>