<?xml version="1.0" encoding="UTF-8" standalone="no"?>
<svg width="140px" height="140px" viewBox="0 0 140 140" version="1.1" xmlns="http://www.w3.org/2000/svg" xmlns:xlink="http://www.w3.org/1999/xlink">
    <!-- Generator: sketchtool 40 (33762) - http://www.bohemiancoding.com/sketch -->
    <title>42E22370-3264-41DE-80D6-26E42ED08201</title>
    <desc>Created with sketchtool.</desc>
    <defs>
        <rect id="path-1" x="0" y="0" width="140" height="140" rx="70"></rect>
        <mask id="mask-2" maskContentUnits="userSpaceOnUse" maskUnits="objectBoundingBox" x="0" y="0" width="140" height="140" fill="white">
            <use xlink:href="#path-1"></use>
        </mask>
    </defs>
    <g id="desktop-round-2" stroke="none" stroke-width="1" fill="none" fill-rule="evenodd">
        <g id="tracking-ui-sprite" transform="translate(-180.000000, -20.000000)">
            <g id="sprite">
                <g id="tracking-icon-delivered" transform="translate(180.000000, 20.000000)">
                    <use id="Rectangle-8" stroke="#52D499" mask="url(#mask-2)" stroke-width="5" xlink:href="#path-1"></use>
                    <g id="noun_605808_cc" transform="translate(35.000000, 39.000000)" fill="#52D499">
                        <g id="Layer_1">
                            <path d="M41.8976536,12.3689696 L41.8976536,23.074585 C41.8976536,23.074585 40.1144134,22.0880562 38.3226816,21.0879391 C37.4650279,20.6092506 36.6073743,20.1305621 35.7497207,19.6518735 C35.2996648,19.3954333 34.8241341,19.3099532 34.3401117,19.5834895 C34.0853631,19.7288056 33.8306145,19.8655738 33.5758659,20.0108899 C31.1387709,21.3700234 28.0648045,23.074585 28.0648045,23.074585 C28.0648045,23.074585 28.0648045,17.7114754 28.0648045,14.0101874 L28.0648045,1.40187354 L28.0648045,1.25655738 C27.6656983,1.65831382 27.2750838,2.05152225 26.8759777,2.45327869 L39.52,2.45327869 L43.0864804,2.45327869 C43.7318436,2.45327869 44.2753073,1.90620609 44.2753073,1.25655738 C44.2753073,0.606908665 43.7318436,0.0598360656 43.0864804,0.0598360656 L30.4424581,0.0598360656 L26.8759777,0.0598360656 C26.2306145,0.0598360656 25.6871508,0.606908665 25.6871508,1.25655738 L25.6871508,12.3775176 L25.6871508,24.9858314 L25.6871508,25.1311475 C25.6871508,26.0543326 26.689162,26.6014052 27.4788827,26.1654567 C30.1792179,24.652459 34.9879837,21.9741525 34.9879837,21.9741525 C34.9879837,21.9741525 40.3340728,24.9678948 42.4835754,26.1654567 C43.2648045,26.6014052 44.2753073,26.0543326 44.2753073,25.1311475 L44.2753073,14.0101874 L44.2753073,1.40187354 L44.2753073,1.25655738 C44.2753073,0.606908665 43.7318436,0.0598360656 43.0864804,0.0598360656 C42.4411173,0.0598360656 41.8976536,0.589812646 41.8976536,1.24800937 L41.8976536,12.3689696 Z" id="Shape"></path>
                            <path d="M11.7184358,43.6888759 L19.6750838,43.6888759 C20.3204469,43.6888759 20.8639106,43.1418033 20.8639106,42.4921546 C20.8639106,41.8425059 20.3204469,41.2954333 19.6750838,41.2954333 L11.7184358,41.2954333 C11.0730726,41.2954333 10.5296089,41.8425059 10.5296089,42.4921546 C10.5296089,43.1418033 11.0730726,43.6888759 11.7184358,43.6888759 L11.7184358,43.6888759 L11.7184358,43.6888759 Z" id="Shape"></path>
                            <path d="M11.7184358,52.7497658 L22.9443575,52.7497658 L34.6627933,52.7497658 L34.6797765,52.7497658 C35.3251397,52.7497658 35.8686034,52.2026932 35.8686034,51.5530445 C35.8686034,50.9033958 35.3251397,50.3563232 34.6797765,50.3563232 L23.4538547,50.3563232 L11.735419,50.3563232 L11.7184358,50.3563232 C11.0730726,50.3563232 10.5296089,50.9033958 10.5296089,51.5530445 C10.5296089,52.2026932 11.0730726,52.7497658 11.7184358,52.7497658 L11.7184358,52.7497658 L11.7184358,52.7497658 Z" id="Shape"></path>
                            <path d="M67.5678212,18.9497658 C67.5678212,18.9502927 67.5678212,28.8837237 67.5678212,34.3459016 L67.5678212,42.2955504 C68.2471508,42.013466 68.9179888,41.7313817 69.5973184,41.4492974 C65.8015642,38.34637 60.9188827,36.8333724 56.0446927,37.4830211 C52.0875978,38.0129977 48.4107263,39.8337237 45.6169832,42.7058548 C43.3242458,45.0651054 41.7023464,48.0825527 41.0060335,51.3051522 C40.1059218,55.4252927 40.7173184,59.7591335 42.6534078,63.4946136 C42.9930726,62.8962529 43.3412291,62.2978923 43.6808939,61.6909836 L35.027933,61.6909836 L18.6560894,61.6909836 L8.92469274,61.6909836 C8.74636872,61.6909836 8.62748603,61.6909836 8.50860335,61.6824356 C8.38972067,61.6738876 8.27083799,61.6653396 8.15195531,61.6567916 C8.07553073,61.6482436 7.99910615,61.6396956 7.92268156,61.6311475 C7.44715084,61.5456674 7.00558659,61.4259953 6.57251397,61.2721311 C6.3347486,61.1866511 6.23284916,61.135363 6.13094972,61.0840749 C5.89318436,60.9729508 5.67240223,60.8447307 5.44312849,60.7079625 C5.25631285,60.5882904 5.06949721,60.4600703 4.89117318,60.3318501 C4.69586592,60.1694379 4.61094972,60.0925059 4.53452514,60.0155738 C4.37318436,59.8617096 4.21184358,59.7078454 4.06748603,59.5454333 C3.99106145,59.4599532 3.92312849,59.3744731 3.84670391,59.297541 C3.79575419,59.2377049 3.75329609,59.1864169 3.70234637,59.1265808 C3.42212291,58.7419204 3.19284916,58.3487119 2.9975419,57.9469555 C2.94659218,57.8443794 2.90413408,57.7418033 2.85318436,57.6392272 C2.71731844,57.2545667 2.64089385,56.9981265 2.58145251,56.7331382 C2.52201117,56.5108899 2.47955307,56.2800937 2.44558659,56.0492974 C2.42011173,55.7843091 2.41162011,55.664637 2.40312849,55.5449649 C2.39463687,55.4167447 2.39463687,55.2885246 2.39463687,55.1688525 L2.39463687,54.9380562 L2.39463687,53.7755269 L2.39463687,42.0989461 L2.39463687,25.4132319 L2.39463687,12.0014052 L2.39463687,9.11217799 C2.39463687,8.06932084 2.50502793,7.48805621 2.84469274,6.54777518 C2.93810056,6.30843091 2.98905028,6.2058548 3.04,6.10327869 C3.14189944,5.89812646 3.2522905,5.71007026 3.37117318,5.51346604 C3.49005587,5.32540984 3.61743017,5.13735363 3.74480447,4.95784543 C3.93162011,4.73559719 4.03351955,4.62447307 4.13541899,4.51334895 C4.28826816,4.35093677 4.44960894,4.1970726 4.61094972,4.04320843 C4.69586592,3.96627635 4.78078212,3.89789227 4.86569832,3.8295082 C5.36670391,3.45339578 5.79128492,3.21405152 6.22435754,3.00035129 C6.45363128,2.89777518 6.56402235,2.86358314 6.66592179,2.82084309 C6.87821229,2.74391101 7.09899441,2.68407494 7.31977654,2.62423888 C7.54055866,2.56440281 7.7698324,2.52166276 7.99910615,2.48747073 C8.29631285,2.45327869 8.45765363,2.44473068 8.61899441,2.44473068 L8.9501676,2.44473068 L9.78234637,2.44473068 L13.6715084,2.44473068 L27.5468156,2.44473068 L44.2498324,2.44473068 L57.3948603,2.44473068 L60.6386592,2.44473068 L61.0802235,2.44473068 C61.3179888,2.44473068 61.5557542,2.45327869 61.7935196,2.47892272 C62.0482682,2.51311475 62.1671508,2.53875878 62.2775419,2.5558548 C62.498324,2.59859485 62.7275978,2.65843091 62.9483799,2.71826698 C63.0587709,2.75245902 63.169162,2.78665105 63.2710615,2.82084309 C63.3135196,2.83793911 63.7211173,2.99180328 63.5088268,2.90632319 C64.442905,3.30807963 65.0203352,3.72693208 65.6487151,4.35093677 C66.277095,4.97494145 66.6677095,5.57330211 67.0837989,6.50503513 C67.1687151,6.7529274 67.2026816,6.85550351 67.236648,6.96662763 C67.304581,7.18887588 67.3640223,7.41112412 67.4149721,7.63337237 C67.4404469,7.74449649 67.4574302,7.86416862 67.482905,7.97529274 C67.550838,8.3941452 67.5593296,8.6676815 67.5678212,8.94976581 L69.9454749,8.94976581 C69.9115084,4.72704918 66.8715084,0.94028103 62.7021229,0.196604215 C61.7255866,0.0256440281 60.7490503,0.0427400468 59.7640223,0.0427400468 L49.0136313,0.0427400468 L32.7351955,0.0427400468 L17.2974302,0.0427400468 L9.08603352,0.0427400468 C6.3347486,0.0427400468 3.66837989,1.19672131 1.95307263,3.40210773 C0.721787709,5.00058548 0.0254748603,6.92388759 0.0254748603,8.94976581 L0.0254748603,9.51393443 L0.0254748603,19.6176815 L0.0254748603,36.0640515 L0.0254748603,50.5614754 L0.0254748603,54.4850117 C0.0254748603,56.4510539 0.365139665,58.3401639 1.45206704,60.0241218 C3.14189944,62.6398126 6.02905028,64.0844262 9.09452514,64.0844262 L12.8223464,64.0844262 L28.0987709,64.0844262 L41.8297207,64.0844262 L43.6808939,64.0844262 C44.6149721,64.0844262 45.1159777,63.0757611 44.7083799,62.2807963 C43.5535196,60.0583138 42.9760894,57.6221311 42.9675978,55.1346604 C42.9591061,53.1857143 43.2648045,51.5444965 43.9696089,49.6211944 C44.012067,49.5186183 44.0545251,49.4074941 44.0884916,49.304918 C44.2243575,48.9629977 44.326257,48.7578454 44.4196648,48.5526932 C44.6319553,48.1081967 44.8612291,47.6807963 45.107486,47.2619438 C45.3367598,46.8772834 45.5830168,46.501171 45.8377654,46.1336066 C46.1434637,45.6976581 46.2198883,45.595082 46.6105028,45.1420375 C47.2134078,44.4325527 47.8842458,43.782904 48.5975419,43.1845433 C48.9456983,42.893911 49.0560894,42.8084309 49.5146369,42.4921546 C49.913743,42.2100703 50.3213408,41.95363 50.7459218,41.7142857 C51.0346369,41.5433255 51.3403352,41.3894614 51.6375419,41.2441452 C51.7734078,41.1757611 51.9092737,41.1159251 52.0451397,41.047541 C52.1130726,41.0133489 52.1810056,40.9877049 52.2489385,40.9535129 C53.0131844,40.6286885 53.6670391,40.4149883 54.3208939,40.2354801 C54.652067,40.141452 54.9917318,40.0645199 55.3313966,39.9961358 C55.4842458,39.9619438 55.637095,39.9362998 55.7899441,39.9106557 C55.8663687,39.8935597 55.9427933,39.8850117 56.0192179,39.8764637 C56.9193296,39.7482436 57.6750838,39.7140515 58.4393296,39.7140515 C61.8529609,39.7311475 65.2326257,40.9278689 67.9244693,43.1332553 C68.2641341,43.4067916 68.6377654,43.5606557 69.0793296,43.4409836 C69.5888268,43.2956674 69.9539665,42.8169789 69.9539665,42.2870023 L69.9539665,33.2859485 L69.9539665,16.8908665 L69.9539665,8.94999695 L67.5678212,8.94976581 L67.5678212,18.9497658 Z" id="Shape"></path>
                            <path d="M73.5374302,56.570726 C73.5204469,56.8100703 73.4949721,57.0408665 73.4610056,57.2716628 C73.4949721,57.0152225 73.4440223,57.3998829 73.4355307,57.4169789 C73.4100559,57.5708431 73.384581,57.7247073 73.3591061,57.8785714 C73.1892737,58.8188525 72.9260335,59.7505855 72.5948603,60.6481265 C72.5524022,60.7507026 72.5099441,60.8618267 72.4759777,60.9644028 C72.467486,60.9814988 72.3231285,61.3234192 72.4250279,61.101171 C72.3401117,61.3063232 72.2382123,61.5114754 72.1448045,61.7166276 C71.932514,62.1611241 71.7032402,62.5885246 71.4569832,63.007377 C71.2277095,63.3920375 70.9814525,63.7681499 70.7267039,64.1357143 C70.4210056,64.5716628 70.344581,64.6742389 69.9539665,65.1272834 C67.5168715,67.9908665 64.3919553,69.7346604 60.6726257,70.3672131 C60.553743,70.3843091 60.443352,70.4014052 60.3244693,70.4185012 C60.5707263,70.3843091 60.197095,70.4355972 60.1801117,70.4355972 C59.9423464,70.4612412 59.7130726,70.4868852 59.4753073,70.5039813 C58.9488268,70.5467213 58.4223464,70.5552693 57.8958659,70.5381733 C56.7579888,70.5125293 56.0192179,70.4185012 54.9407821,70.1791569 C54.4567598,70.0680328 53.9812291,69.9312646 53.5056983,69.7859485 C53.267933,69.7090164 53.0386592,69.6235363 52.8093855,69.5380562 C52.6905028,69.4953162 52.5801117,69.4525761 52.4697207,69.4012881 C52.3338547,69.35 52.2574302,69.315808 52.1894972,69.2816159 C51.2639106,68.8713115 50.3807821,68.3584309 49.5401117,67.7857143 C48.8098324,67.2813817 48.1050279,66.6830211 47.3747486,65.9478923 C46.627486,65.1871194 46.1179888,64.5545667 45.5830168,63.7425059 C44.258324,61.7593677 43.4346369,59.5197892 43.0949721,57.1605386 C42.9421229,56.1005855 42.9421229,54.9124122 43.0270391,53.809719 C43.0440223,53.5703747 43.0694972,53.3395785 43.0949721,53.1002342 C43.1374302,52.7155738 43.0610056,53.3310304 43.1119553,52.954918 C43.1289385,52.8352459 43.1459218,52.7241218 43.1713966,52.6044496 C43.2563128,52.1086651 43.3667039,51.6214286 43.4940782,51.134192 C43.6129609,50.6896956 43.7488268,50.2537471 43.901676,49.8177986 C43.9781006,49.6040984 44.0630168,49.3903981 44.147933,49.1766979 C44.2837989,48.8262295 44.0545251,49.3903981 44.2073743,49.0399297 C44.2668156,48.9031616 44.3347486,48.7663934 44.3941899,48.6296253 C44.7932961,47.7833724 45.2688268,46.9713115 45.7953073,46.1934426 C45.9226816,46.0053864 46.0585475,45.8258782 46.1859218,45.64637 C46.0415642,45.8429742 46.2623464,45.5523419 46.270838,45.5352459 C46.3387709,45.4497658 46.4151955,45.3642857 46.4831285,45.2788056 C46.7888268,44.9026932 47.12,44.5522248 47.4596648,44.2103044 C47.7738547,43.8940281 48.1050279,43.5948478 48.4362011,43.2956674 C48.6060335,43.1503513 48.7758659,43.0135831 48.9541899,42.868267 C48.7673743,43.0221311 49.0560894,42.7913349 49.064581,42.7827869 C49.1834637,42.6973068 49.3023464,42.6032787 49.4297207,42.5177986 C50.1939665,41.979274 51.0006704,41.5091335 51.8498324,41.107377 C51.9517318,41.056089 52.0536313,41.0133489 52.1555307,40.9620609 C52.172514,40.9535129 52.5121788,40.8081967 52.282905,40.9022248 C52.4951955,40.8167447 52.6989944,40.7312646 52.9112849,40.6543326 C53.378324,40.4833724 53.8453631,40.3380562 54.3208939,40.2012881 C54.7624581,40.0816159 55.212514,39.9790398 55.6710615,39.9021077 C55.7814525,39.8850117 55.9003352,39.8593677 56.0107263,39.8422717 C56.0277095,39.8422717 56.4098324,39.7824356 56.1550838,39.8166276 C56.4268156,39.7824356 56.6985475,39.7567916 56.9702793,39.7311475 C58.0996648,39.6371194 59.2290503,39.6713115 60.3499441,39.8080796 C62.5492737,40.0730679 64.7401117,40.9449649 66.6507263,42.1844262 C70.3191061,44.5607728 72.6458101,48.321897 73.3930726,52.5702576 C73.4779888,53.0318501 73.4949721,53.2284543 73.5374302,53.7242389 C73.5798883,54.2200234 73.5968715,55.1346604 73.5968715,55.1346604 L75.9745251,55.1346604 C75.9575419,50.5187354 74.1658101,46.0823185 70.9984358,42.7485948 C67.5932961,39.1669789 62.7106145,37.2009368 57.8024581,37.3291569 C53.7689385,37.431733 49.9222346,38.9618267 46.8312849,41.5604215 C43.8592179,44.0564403 41.7702793,47.6124122 40.972067,51.4162763 C39.9785475,56.1347775 40.9465922,61.178103 43.655419,65.1614754 C46.0585475,68.7003513 49.6929609,71.2903981 53.8198883,72.3759953 C57.8873743,73.4530445 62.2435754,72.965808 66.0223464,71.15363 C69.4869274,69.4953162 72.3740782,66.580445 74.0893855,63.1355972 C75.329162,60.6566745 75.9660335,57.9127635 75.9745251,55.1346604 C75.9745251,55.1346604 75.4310615,55.1346604 74.7856983,55.1346604 C74.1318436,55.1346604 73.5968715,55.1346604 73.5968715,55.1346604 C73.5968715,55.1346604 73.5713966,56.0920375 73.5374302,56.570726 Z" id="Shape"></path>
                            <path d="M56.24,57.9640515 C55.6795531,58.5282201 55.3998248,58.810803 55.3998248,58.810803 L51.3318436,54.715808 C50.2449162,53.6216628 48.5635754,55.3141686 49.6505028,56.4083138 C51.2893855,58.0580796 52.9197765,59.6992974 54.5586592,61.3490632 C55.0172067,61.8106557 55.7814525,61.8106557 56.24,61.3490632 C59.2375419,58.3316159 62.2350838,55.3141686 65.2241341,52.3052693 C65.784581,51.7411007 66.3450279,51.1769321 66.9054749,50.6127635 C67.9924022,49.5271663 66.3110615,47.8346604 65.2241341,48.9202576 L56.24,57.9640515 Z" id="Shape"></path>
                        </g>
                    </g>
                </g>
            </g>
        </g>
    </g>
</svg>