<?xml version="1.0" encoding="UTF-8" standalone="no"?>
<svg width="16px" height="16px" viewBox="0 0 16 16" version="1.1" xmlns="http://www.w3.org/2000/svg" xmlns:xlink="http://www.w3.org/1999/xlink">
    <!-- Generator: Sketch 40.1 (33804) - http://www.bohemiancoding.com/sketch -->
    <title>tracking-icon-arrow-right</title>
    <desc>Created with Sketch.</desc>
    <defs>
        <rect id="path-1" x="0" y="0" width="16" height="16" rx="8"></rect>
        <mask id="mask-2" maskContentUnits="userSpaceOnUse" maskUnits="objectBoundingBox" x="0" y="0" width="16" height="16" fill="white">
            <use xlink:href="#path-1"></use>
        </mask>
    </defs>
    <g id="mobile-round-2" stroke="none" stroke-width="1" fill="none" fill-rule="evenodd">
        <g id="tracking-ui-mobile-320" transform="translate(-294.000000, -398.000000)">
            <g id="Group-2-Copy-13" transform="translate(0.000000, 388.000000)">
                <g id="tracking-icon-arrow-right" transform="translate(294.000000, 10.000000)">
                    <use id="Rectangle-2" stroke="#0051B2" mask="url(#mask-2)" stroke-width="2" xlink:href="#path-1"></use>
                    <g id="chevron-right" transform="translate(6.000000, 4.000000)" fill="#0051B2">
                        <g id="Chevron_right">
                            <path d="M1.74618971,0.344 C2.01158654,0.616 4.60460241,3.474 4.60460241,3.474 C4.74618971,3.62 4.81730083,3.81 4.81730083,4 C4.81730083,4.19 4.74618971,4.38 4.60460241,4.52466667 C4.60460241,4.52466667 2.01158654,7.384 1.74618971,7.65466667 C1.48079289,7.92666667 1.00333257,7.94533333 0.720792888,7.65466667 C0.437618285,7.36533333 0.415396063,6.96066667 0.720792888,6.60533333 L3.09984051,4 L0.720792888,1.39466667 C0.415396063,1.03933333 0.437618285,0.634 0.720792888,0.344 C1.00333257,0.0533333333 1.48079289,0.0713333333 1.74618971,0.344 L1.74618971,0.344 Z" id="Shape"></path>
                        </g>
                    </g>
                </g>
            </g>
        </g>
    </g>
</svg>