<?xml version="1.0" encoding="UTF-8" standalone="no"?>
<svg width="139px" height="32px" viewBox="0 0 139 32" version="1.1" xmlns="http://www.w3.org/2000/svg" xmlns:xlink="http://www.w3.org/1999/xlink">
    <!-- Generator: sketchtool 40 (33762) - http://www.bohemiancoding.com/sketch -->
    <title>0119BE3B-4AD6-4CD5-BFE6-74EBBBC86F3C</title>
    <desc>Created with sketchtool.</desc>
    <defs></defs>
    <g id="desktop-round-2" stroke="none" stroke-width="1" fill="none" fill-rule="evenodd">
        <g id="tracking-ui-sprite" transform="translate(-351.000000, -188.000000)">
            <g id="sprite">
                <g id="tracking-flow-branding-color" transform="translate(340.000000, 180.000000)">
                    <g id="logo">
                        <rect id="Rectangle-7" x="0" y="0" width="160" height="48"></rect>
                        <g id="flow-logo-color" transform="translate(11.000000, 8.000000)">
                            <g id="tweaked-tight-all">
                                <g>
                                    <g id="flow-logo-color">
                                        <g id="Group">
                                            <g id="icon">
                                                <path d="M1.42953846,14.0246617 C1.69549222,14.5726181 2.03796326,15.0783336 2.44625641,15.526015 C2.64008432,15.6989967 2.84412497,15.859699 3.05723077,16.007218 C3.13271794,15.9542857 3.20584615,15.8965414 3.29312822,15.848421 C4.05460714,15.3678643 4.90645498,15.0555756 5.79364102,14.9317293 C6.22887283,11.2889727 8.87099782,8.32313634 12.3846154,7.53323308 L12.3704615,7.51157895 C10.6271795,4.73263157 6.94482052,3.80872182 4.01969231,5.51218046 C3.34089031,5.90528874 2.74005623,6.42426422 2.24810256,7.042406 C2.18205128,7.12421052 2.12071795,7.20842105 2.05702564,7.28300751 C0.704369062,9.12167769 0.409825957,11.5543197 1.28328205,13.6733834 C1.32574359,13.7936842 1.37449573,13.910777 1.42953846,14.0246617 L1.42953846,14.0246617 L1.42953846,14.0246617 Z" id="Shape" fill="#69CEF2"></path>
                                                <path d="M26.9937436,17.917594 C26.7278186,17.3696203 26.3853448,16.8639007 25.9770256,16.4162406 C25.7831977,16.2432589 25.5791571,16.0825566 25.3660513,15.9350376 C25.2905641,15.9879699 25.2174359,16.0457143 25.1301538,16.0938346 C24.3686749,16.5743913 23.5168271,16.88668 22.629641,17.0105263 C22.1944092,20.6532829 19.5522842,23.6191193 16.0386667,24.4090226 L16.0528205,24.4306767 C17.7961026,27.2096241 21.4784615,28.1335338 24.4035898,26.4300752 C25.0823918,26.0369669 25.6832258,25.5179914 26.1751795,24.8998496 C26.2412308,24.8180451 26.3025641,24.7338346 26.3662564,24.6592481 C27.7184517,22.8203882 28.0129634,20.3880054 27.14,18.2688722 C27.0975385,18.1485714 27.0487863,18.0314787 26.9937436,17.917594 L26.9937436,17.917594 L26.9937436,17.917594 Z" id="Shape" fill="#69CEF2"></path>
                                                <path d="M27.229641,7.07849625 L27.2154872,7.05443609 C27.1565128,6.95819548 27.0928205,6.87157895 27.0291282,6.78015037 C26.9654359,6.68872182 26.8757949,6.56120302 26.7932308,6.45533834 C23.8125703,2.35798322 19.0912948,-0.0394530034 14.0892187,0.00431496942 C9.08714265,0.0480829422 4.40688951,2.52778218 1.49558974,6.67669172 C1.43189744,6.76571428 1.3705641,6.85954886 1.30923077,6.95097745 C-0.487624772,9.69236895 -0.00222257224,13.3693819 2.44153846,15.528421 C2.0332193,15.080761 1.69074552,14.5750414 1.42482051,14.0270677 C1.36977778,13.913183 1.31866667,13.7984962 1.27148718,13.6830075 C0.398031083,11.5639438 0.692574191,9.13130175 2.04523077,7.29263157 C2.10892308,7.20842105 2.17025641,7.12421052 2.23630769,7.05203006 C2.72826136,6.43388828 3.32909542,5.9149128 4.00789745,5.52180452 C6.9377436,3.81593985 10.6130256,4.74225563 12.3586667,7.52120302 L12.8965128,8.40902255 L15.5126154,12.7254135 L16.2792821,13.9885714 C18.1501396,17.0727288 22.1180906,18.0260593 25.1419487,16.1178947 C28.1658069,14.2097302 29.1004985,10.1626536 27.229641,7.07849625 L27.229641,7.07849625 L27.229641,7.07849625 Z" id="Shape" fill="#2055A6"></path>
                                                <path d="M27.2272821,17.912782 C26.8865368,17.3513471 26.4641847,16.8459378 25.9746667,16.4138346 C26.3829858,16.8614947 26.7254596,17.3672142 26.9913846,17.915188 C27.0464274,18.0290727 27.0975385,18.1437594 27.1447179,18.2592481 C28.018174,20.3783118 27.7236309,22.8109539 26.3709744,24.6496241 C26.3072821,24.7338346 26.2459487,24.8180451 26.1798974,24.8902256 C25.6879438,25.5083674 25.0871097,26.0273428 24.4083077,26.4204511 C21.4784615,28.1263158 17.8031795,27.2 16.0575385,24.4210526 L15.5196923,23.5332331 L12.9035898,19.2168421 L12.1369231,17.9536842 C10.9296402,15.9598736 8.77117594,14.774438 6.47460286,14.8439196 C4.17802982,14.9134011 2.09225203,16.2272439 1.00296185,18.2905361 C-0.0863283409,20.3538283 -0.0136418486,22.8531067 1.19364102,24.8469173 L1.20779487,24.8709774 C1.26676923,24.967218 1.33046154,25.0538346 1.39415385,25.1452632 C1.45784615,25.2366917 1.54748718,25.3642105 1.63005128,25.4700752 C4.60903572,29.5668684 9.32803335,31.9651551 14.3286879,31.9237698 C19.3293425,31.8823846 24.0095621,29.4063104 26.9229744,25.2607519 C26.9866667,25.1717293 27.048,25.0778947 27.1093333,24.9864662 C28.4995638,22.8543589 28.5456264,20.091872 27.2272821,17.912782 L27.2272821,17.912782 L27.2272821,17.912782 Z" id="Shape" fill="#2055A6"></path>
                                            </g>
                                            <g id="type" transform="translate(41.846154, 4.000000)" fill="#2055A6">
                                                <path d="M1.06153846,24.0676923 C0.780929302,24.0727496 0.510322298,23.9635065 0.311869437,23.7650536 C0.113416575,23.5666008 0.00417350929,23.2959938 0.00923076923,23.0153846 L0.00923076923,1.49538462 C0.00417350929,1.21477546 0.113416575,0.944168452 0.311869437,0.745715591 C0.510322298,0.547262729 0.780929302,0.438019665 1.06153846,0.443076923 L14.5538462,0.443076923 C14.9047499,0.423057945 15.2379137,0.598887877 15.4194009,0.899880542 C15.6008881,1.2008732 15.6008881,1.57758834 15.4194009,1.878581 C15.2379137,2.17957366 14.9047499,2.35540359 14.5538462,2.33538462 L2.11384615,2.33538462 L2.11384615,11.0276923 L10.3046154,11.0276923 C10.6555191,11.0076733 10.9886829,11.1835033 11.1701702,11.4844959 C11.3516574,11.7854886 11.3516574,12.1622037 11.1701702,12.4631964 C10.9886829,12.764189 10.6555191,12.940019 10.3046154,12.92 L2.11384615,12.92 L2.11384615,23.0153846 C2.11890341,23.2959938 2.00966035,23.5666008 1.81120749,23.7650536 C1.61275462,23.9635065 1.34214762,24.0727496 1.06153846,24.0676923 L1.06153846,24.0676923 L1.06153846,24.0676923 Z" id="Shape"></path>
                                                <path d="M35.4738462,21.8953846 C35.8247498,21.8753656 36.1579138,22.0511956 36.3394009,22.3521882 C36.520888,22.6531809 36.520888,23.029896 36.3394009,23.3308887 C36.1579138,23.6318814 35.8247498,23.8077113 35.4738462,23.7876923 L21.8738462,23.7876923 C21.593237,23.7927496 21.32263,23.6835065 21.1241771,23.4850536 C20.9257243,23.2866008 20.8164812,23.0159938 20.8215385,22.7353846 L20.8215385,1.22769231 C20.8004822,0.838720831 20.9960253,0.469937957 21.3298119,0.269118058 C21.6635986,0.0682981588 22.0810168,0.0682981588 22.4148034,0.269118058 C22.7485901,0.469937957 22.9441332,0.838720831 22.9230769,1.22769231 L22.9230769,21.9076923 L35.4707692,21.9076923 L35.4738462,21.8953846 L35.4738462,21.8953846 Z" id="Shape"></path>
                                                <path d="M50.1292308,24.2092308 C43.12,24.2092308 38.3538462,18.6369231 38.3538462,12.1169231 C38.3538462,5.59692308 43.12,0.0246153846 50.1292308,0.0246153846 C57.1384615,0.0246153846 61.8215385,5.59692308 61.8215385,12.1169231 C61.8215385,18.6369231 57.1353846,24.2092308 50.1292308,24.2092308 L50.1292308,24.2092308 L50.1292308,24.2092308 Z M50.1292308,1.88307692 C44.1015385,1.88307692 40.4553846,6.75384615 40.4553846,12.1169231 C40.4553846,17.48 44.1015385,22.3507692 50.1292308,22.3507692 C56.1569231,22.3507692 59.7323077,17.48 59.7323077,12.1169231 C59.7323077,6.75384615 56.1538462,1.88307692 50.1292308,1.88307692 L50.1292308,1.88307692 L50.1292308,1.88307692 Z" id="Shape"></path>
                                                <path d="M88.4984615,24.0676923 C88.0297723,24.1037351 87.6039222,23.7950913 87.4923077,23.3384615 L81.2246154,4.36307692 L74.9569231,23.3384615 C74.8453086,23.7950913 74.4194585,24.1037351 73.9507692,24.0676923 C73.4844511,24.0989145 73.0618908,23.7939474 72.9446154,23.3415385 L65.9046154,1.64923077 C65.8650535,1.50337576 65.8403129,1.35390043 65.8307692,1.20307692 C65.8229209,0.924117723 65.9309317,0.65436068 66.1291363,0.457905055 C66.3273406,0.26144943 66.5980443,0.155833603 66.8769231,0.166153846 C67.3546055,0.154697761 67.7684594,0.495210498 67.8492308,0.966153846 L73.9476923,19.8676923 L80.2153846,0.966153846 C80.3231043,0.496392708 80.7411234,0.163379289 81.2230769,0.163379289 C81.7050305,0.163379289 82.1230495,0.496392708 82.2307692,0.966153846 L88.4953846,19.8676923 L94.5938462,0.966153846 C94.6759692,0.496437548 95.089456,0.157535426 95.5661538,0.169230769 C95.8450326,0.158910526 96.1157363,0.264526353 96.3139406,0.460981978 C96.5121452,0.657437603 96.620156,0.927194646 96.6123077,1.20615385 C96.6032815,1.35479497 96.5795766,1.50217899 96.5415385,1.64615385 L89.5138462,23.3384615 C89.3961105,23.7949943 88.9686843,24.1019642 88.4984615,24.0676923 L88.4984615,24.0676923 L88.4984615,24.0676923 Z" id="Shape"></path>
                                            </g>
                                        </g>
                                    </g>
                                </g>
                            </g>
                        </g>
                    </g>
                </g>
            </g>
        </g>
    </g>
</svg>