<?xml version="1.0" encoding="UTF-8" standalone="no"?>
<svg width="140px" height="140px" viewBox="0 0 140 140" version="1.1" xmlns="http://www.w3.org/2000/svg" xmlns:xlink="http://www.w3.org/1999/xlink">
    <!-- Generator: Sketch 40 (33762) - http://www.bohemiancoding.com/sketch -->
    <title>tracking-icon-in-transit-error</title>
    <desc>Created with Sketch.</desc>
    <defs>
        <rect id="path-1" x="0" y="0" width="140" height="140" rx="70"></rect>
        <mask id="mask-2" maskContentUnits="userSpaceOnUse" maskUnits="objectBoundingBox" x="0" y="0" width="140" height="140" fill="white">
            <use xlink:href="#path-1"></use>
        </mask>
    </defs>
    <g id="desktop-round-2" stroke="none" stroke-width="1" fill="none" fill-rule="evenodd">
        <g id="tracking-ui-sprite" transform="translate(-20.000000, -180.000000)">
            <g id="sprite">
                <g id="tracking-icon-in-transit-error" transform="translate(20.000000, 180.000000)">
                    <use id="Rectangle-8" stroke="#F97762" mask="url(#mask-2)" stroke-width="5" xlink:href="#path-1"></use>
                    <g id="noun_605817_cc" transform="translate(27.000000, 38.000000)" fill="#F97762">
                        <g id="Layer_1">
                            <g id="Shape">
                                <path d="M36.7794792,19.6684271 C36.7794792,20.8159101 36.6846875,21.7926931 36.5140625,22.7030928 C36.3244792,23.7462591 36.030625,24.7704588 35.6609375,25.7662085 C35.6135417,25.8800084 35.5661458,26.0032917 35.5282292,26.1170917 C35.51875,26.1360584 35.3576042,26.5153916 35.4713542,26.2593417 C35.3765625,26.4869416 35.2628125,26.7145415 35.1585417,26.9421414 C34.9215625,27.4257913 34.665625,27.9094411 34.3907292,28.3741243 C34.1347917,28.8008742 33.8598958,29.2181407 33.5755208,29.6259239 C33.2342708,30.1095738 33.1489583,30.2138904 32.7129167,30.7165069 C30.001875,33.8649726 26.5040625,35.7900886 22.3521875,36.4634051 C22.3332292,36.4634051 21.9066667,36.5297884 22.1910417,36.4918551 C22.0583333,36.5108217 21.9351042,36.5203051 21.8023958,36.5392717 C21.5464583,36.5677217 21.2810417,36.5866884 21.015625,36.605655 C20.3805208,36.6530717 19.7548958,36.6530717 19.1197917,36.634105 C17.7358333,36.5866884 16.4277083,36.3590884 15.0911458,35.9797552 C12.7592708,35.3159221 10.4842708,34.0451558 8.74010417,32.5373063 C4.87260417,29.1896907 2.701875,24.201459 2.8725,19.0140773 C2.89145833,18.4924941 2.929375,17.9614276 2.99572917,17.4398445 C3.043125,17.0130946 2.9578125,17.6958944 3.0146875,17.2786278 C3.03364583,17.1458612 3.05260417,17.0225779 3.08104167,16.8992946 C3.1284375,16.6053114 3.19479167,16.3113281 3.25166667,16.0173449 C3.47916667,14.9836619 3.8109375,13.9784289 4.2090625,13.0016459 C4.10479167,13.2576958 4.2659375,12.8783626 4.27541667,12.8593959 C4.3228125,12.7455959 4.3796875,12.631796 4.4365625,12.517996 C4.54083333,12.2903961 4.65458333,12.0722795 4.76833333,11.8446796 C5.01479167,11.3705131 5.2896875,10.9058299 5.58354167,10.45063 C5.84895833,10.0333635 6.1428125,9.62558027 6.43666667,9.23676373 C6.27552083,9.45488033 6.52197917,9.1324471 6.53145833,9.11348044 C6.60729167,9.01864713 6.69260417,8.92381383 6.7684375,8.82898053 C6.95802083,8.61086393 7.14760417,8.39274733 7.34666667,8.18411407 C7.6784375,7.82374751 8.03864583,7.47286429 8.39885417,7.14094773 C8.57895833,6.97024778 8.76854167,6.80903117 8.958125,6.64781455 C9.05291667,6.57194791 9.14770833,6.48659794 9.2425,6.4107313 C9.30885417,6.36331464 9.37520833,6.30641466 9.43208333,6.25899801 C9.3278125,6.33486465 9.33729167,6.33486465 9.46052083,6.24003135 C10.2852083,5.61413155 11.1667708,5.06409839 12.08625,4.58044854 C13.0626042,4.06834871 13.6692708,3.83126545 14.7972917,3.48038223 C15.2807292,3.32864894 15.783125,3.20536565 16.2760417,3.09156568 C16.5319792,3.0346657 16.7784375,2.98724905 17.034375,2.9398324 C17.1576042,2.92086574 17.2903125,2.90189908 17.4135417,2.87344909 C17.5746875,2.85448243 17.5841667,2.8449991 17.4419792,2.86396576 C17.5272917,2.85448243 17.6126042,2.8449991 17.6979167,2.83551577 C22.5322917,2.26651595 27.3571875,3.70798215 31.025625,6.96076445 C34.6751042,10.1661301 36.7510417,14.727612 36.7794792,19.6684271 C36.7794792,20.3891602 37.3766667,20.9960933 38.1065625,20.9960933 C38.8269792,20.9960933 39.4336458,20.3891602 39.4336458,19.6684271 C39.4052083,14.2724121 37.1776042,9.06606378 33.24375,5.35808163 C29.2814583,1.62164948 23.7930208,-0.312949901 18.3614583,0.0948333032 C13.90625,0.426749864 9.70697917,2.28548261 6.43666667,5.31066498 C3.26114583,8.25049738 1.109375,12.2998794 0.445833333,16.5673781 C-0.407291667,22.077193 1.09989583,27.5964912 4.53135417,31.9777898 C7.88697917,36.2452885 13.0341667,38.815271 18.4088542,39.2515042 C22.9114583,39.6118707 27.5372917,38.2842045 31.19625,35.6478387 C34.7698958,33.0778562 37.395625,29.3793573 38.646875,25.1592753 C39.1682292,23.3858926 39.4146875,21.5176765 39.4241667,19.6779104 C39.4241667,18.9571773 38.8175,18.3502442 38.0970833,18.3502442 C37.3766667,18.3407608 36.7794792,18.947694 36.7794792,19.6684271 L36.7794792,19.6684271 Z"></path>
                                <path d="M82.3079167,47.7485682 L82.3079167,51.9971001 L82.3079167,53.2963164 L82.3079167,53.599783 L82.3079167,53.7894496 C82.3079167,53.9032495 82.2889583,53.9885995 82.27,54.0644661 C82.2320833,54.2256828 82.1752083,54.3868994 82.1183333,54.5386327 C82.213125,54.2920661 81.9951042,54.7282993 81.9761458,54.7662326 C81.92875,54.8326159 81.8813542,54.8989992 81.8339583,54.9653825 C81.7486458,55.0317658 81.6917708,55.0886658 81.6348958,55.1455658 C81.6159375,55.1645325 81.303125,55.4016157 81.5211458,55.2403991 C81.3884375,55.3352324 81.24625,55.4110991 81.0945833,55.4869657 C80.9903125,55.524899 80.905,55.553349 80.8291667,55.5723157 C80.7722917,55.5912823 80.2888542,55.6576656 80.5542708,55.638699 C80.45,55.6481823 80.3552083,55.6481823 80.2509375,55.6481823 C79.483125,55.6481823 79.1209603,55.6394181 79.1209603,55.6394181 C78.4299429,52.493497 75.6592432,50.1421278 72.316875,50.1004341 C69.0217508,50.0592269 66.270712,52.4746414 65.5382538,55.5478744 C65.4278797,56.0109801 65.5161133,55.6481823 65.5161133,55.6481823 L62.3163542,55.6494141 L62.3163542,45.5579189 L62.3163542,28.9241575 C62.3163542,28.193941 62.3163542,28.0706577 62.3163542,28.0706577 C62.3163542,28.0706577 70.2762956,28.0516911 74.250625,28.0516911 L74.3738542,28.0516911 C74.5065625,28.0516911 74.64875,28.0611744 74.7814583,28.0706577 C74.7909375,28.0706577 75.2269792,28.1275577 74.9615625,28.0896244 C75.2648958,28.1370411 75.55875,28.222391 75.8526042,28.3172243 C75.8620833,28.3172243 76.2602083,28.4784409 76.01375,28.3741243 C76.1275,28.421541 76.24125,28.4879243 76.355,28.5448243 C76.5825,28.6586242 76.7910417,28.8008742 76.9995833,28.9526075 C76.7910417,28.8008742 77.1133333,29.0474408 77.1228125,29.0569241 C77.2176042,29.1422741 77.3123958,29.227624 77.3977083,29.312974 C77.4925,29.398324 77.5683333,29.4931573 77.6536458,29.5879906 C77.7105208,29.6543739 77.7673958,29.7207572 77.8147917,29.7871405 C77.9854167,30.0337071 78.1086458,30.261307 78.231875,30.488907 C78.28875,30.6027069 78.345625,30.7259902 78.4025,30.8397902 C78.2982292,30.6027069 78.4498958,31.0010068 78.459375,31.0104901 C78.4783333,31.0673901 78.4972917,31.1148068 78.51625,31.1717068 C78.6489583,31.5320733 78.7721875,31.8829565 78.9048958,32.2433231 C79.8717708,34.8986556 80.8291667,37.5634714 81.7960417,40.2188039 C81.9761458,40.7119371 82.1467708,41.1955869 82.326875,41.6887201 L84.9241667,41.1791992 C84.1753125,39.1023499 83.3885417,36.8427383 82.6302083,34.7658889 C82.1846875,33.5425393 81.7486458,32.3286731 81.303125,31.1053234 C80.8576042,29.8819738 80.393125,28.7344909 79.5305208,27.7197745 C78.2413542,26.2024417 76.2317708,25.4153253 74.2695833,25.4153253 L71.748125,25.4153253 L62.989375,25.4153253 L60.9703125,25.4153253 C60.2498958,25.4153253 59.6432292,26.0222584 59.6432292,26.7429915 L59.6432292,38.1609212 L59.6432292,54.7946826 L59.6432292,56.9948152 C59.6432292,57.7155483 60.2498958,58.3224815 60.9703125,58.3224815 L66.6578125,58.3224815 C67.3971875,58.3224815 67.9659375,57.7155483 67.9848958,56.9948152 C67.9848958,56.8620486 67.994375,56.729282 68.0038542,56.5965153 C68.0133333,56.473232 68.0322917,56.3878821 68.05125,56.3025321 C68.1176042,55.9706155 68.221875,55.638699 68.3451042,55.3257491 C68.2503125,55.5628323 68.4588542,55.1171158 68.4778125,55.0696992 C68.5536458,54.9179659 68.6484375,54.7851993 68.73375,54.6429493 C68.7811458,54.576566 68.8285417,54.5006993 68.8759375,54.434316 C68.9991667,54.2730994 69.1129167,54.1592995 69.2266667,54.0360162 C69.3404167,53.9127329 69.4636458,53.8084162 69.5963542,53.6946163 C69.6911458,53.628233 69.7575,53.5808163 69.8238542,53.5333997 C70.09875,53.343733 70.3926042,53.1919998 70.7054167,53.0497498 C70.4779167,53.1540664 70.9329167,52.9738832 70.9803125,52.9643998 C71.1414583,52.9074998 71.3120833,52.8695665 71.4732292,52.8316332 C71.5585417,52.8126665 71.6438542,52.7936999 71.7291667,52.7842166 C71.9471875,52.7652499 72.1178125,52.7652499 72.2979167,52.7557666 C72.430625,52.7557666 72.5633333,52.7652499 72.6960417,52.7652499 C72.7813542,52.7747332 72.8666667,52.7842166 72.9614583,52.7936999 C73.3216667,52.8600832 73.6534375,52.9643998 73.9757292,53.0781998 C73.73875,52.9928498 74.1842708,53.1825164 74.2316667,53.2014831 C74.3833333,53.2773497 74.5255208,53.3626997 74.6677083,53.4480497 C74.705625,53.4764997 75.10375,53.7609996 74.9046875,53.599783 C75.0373958,53.7040996 75.160625,53.8178996 75.274375,53.9316995 C75.3976042,54.0454995 75.501875,54.1687828 75.615625,54.2920661 C75.6725,54.3584494 75.7198958,54.4153494 75.7767708,54.4817327 C75.9853125,54.7851993 76.1464583,55.0791825 76.2886458,55.3826491 C76.184375,55.1550491 76.3644792,55.610249 76.3834375,55.6576656 C76.4403125,55.8188823 76.4782292,55.9895822 76.5161458,56.1507988 C76.525625,56.1982155 76.6109375,56.700832 76.5730208,56.4352987 C76.5919792,56.6059987 76.6014583,56.7861819 76.6014583,56.9663652 C76.6204167,57.6870983 77.1891667,58.2940315 77.9285417,58.2940315 C79.3598958,58.2940315 80.8386458,58.4457648 82.1752083,57.8767649 C83.9478125,57.1275818 84.9241667,55.3162658 84.9241667,53.4480497 L84.9241667,45.9277687 C84.9241667,44.3914692 84.9241667,42.7154987 84.9241667,41.1791992 L82.3299866,41.6887201 C82.3299866,41.6887201 82.3079167,45.6148188 82.3079167,47.7485682 Z"></path>
                                <path d="M59.6716667,29.5974739 L59.6716667,47.8244348 L59.6716667,57.0042985 C60.1171875,56.558582 60.5532292,56.1223488 60.99875,55.6766323 L49.2825,55.6766323 C43.9836458,55.6766323 33.2689209,55.6861156 33.2689209,55.6861156 C33.2689209,55.6861156 33.3523418,56.0015649 33.2375875,55.5257828 C32.4955972,52.4494195 29.7581579,50.1617365 26.4661458,50.1288841 C23.1867937,50.0878742 20.4463309,52.4800249 19.698181,55.5322397 C19.5813017,56.00907 19.6664429,55.6766323 19.6664429,55.6766323 L17.4514583,55.6766323 L15.72625,55.6766323 C15.6219792,55.6766323 15.1669792,55.6576656 15.3944792,55.6861156 C15.27125,55.667149 15.1480208,55.638699 15.0247917,55.610249 C15.0058333,55.6007657 14.6171875,55.467999 14.873125,55.5723157 C14.759375,55.524899 14.6551042,55.467999 14.5413542,55.4016157 C14.475,55.3636824 14.3991667,55.3162658 14.3328125,55.2688491 C14.2190625,55.1740158 14.13375,55.0791825 14.0484375,54.9938325 C14.0294792,54.9748659 13.7925,54.661916 13.9536458,54.8800326 C13.8778125,54.7757159 13.8209375,54.6713993 13.7640625,54.5670827 C13.7451042,54.5386327 13.6029167,54.1782661 13.6977083,54.434316 C13.6503125,54.3205161 13.621875,54.1972328 13.5934375,54.0739495 C13.5839583,54.0454995 13.5365625,53.6471996 13.565,53.9222162 C13.5555208,53.8273829 13.5555208,53.7325496 13.5555208,53.6471996 L13.5555208,53.0876831 L13.5555208,50.1194007 L13.5555208,36.3401218 C12.8919792,36.719455 12.2284375,37.1082715 11.5554167,37.4876048 C16.2855208,39.6213541 21.7265625,39.9153373 26.6083333,38.0945379 C30.7222917,36.5582384 34.2201042,33.675306 36.5330208,29.9483571 C39.1113542,25.7946585 39.9360417,20.7590101 39.0734375,15.9699283 C38.646875,16.5294447 38.2203125,17.0889612 37.79375,17.6484777 L51.6522917,17.6484777 L56.7805208,17.6484777 L57.6620833,17.6484777 C58.7616667,17.6389944 59.6527083,18.5683608 59.6716667,19.6589438 L62.2879167,19.6589438 C62.2405208,17.1174112 60.2309375,14.9931452 57.6526042,14.9931452 L56.2117708,14.9931452 L48.2492708,14.9931452 L37.79375,14.9931452 C36.8742708,14.9931452 36.3623958,15.8371616 36.5140625,16.6716947 C36.7510417,17.9614276 36.8173958,19.2890939 36.7510417,20.6072768 C36.7415625,20.87281 36.7226042,21.12886 36.6941667,21.3943932 C36.6846875,21.5271598 36.6657292,21.6504431 36.65625,21.7832097 C36.65625,21.8021764 36.599375,22.2289263 36.6372917,21.9444264 C36.5614583,22.4944595 36.4477083,23.0444927 36.3244792,23.5850425 C36.2107292,24.0781757 36.0685417,24.5713089 35.9073958,25.0549587 C35.8315625,25.292042 35.74625,25.5291252 35.6514583,25.7662085 C35.6040625,25.8800084 35.5566667,26.0032917 35.51875,26.1170917 C35.4903125,26.1929583 35.4523958,26.268825 35.4239583,26.354175 C34.9879167,27.3404413 34.4760417,28.250841 33.9072917,29.1138241 C33.3101042,30.0242238 32.9025,30.517357 32.10625,31.3613734 C31.765,31.7217399 31.4047917,32.0631398 31.0351042,32.3950564 C30.855,32.556273 30.6654167,32.7174896 30.4663542,32.8787062 C30.3715625,32.9545729 30.2767708,33.0304395 30.1725,33.1157895 C30.3715625,32.9545729 29.9829167,33.2580394 29.945,33.2864894 C29.1108333,33.9029059 28.2197917,34.4434557 27.2908333,34.9081389 C26.3903125,35.3633388 25.6698958,35.6383553 24.5608333,35.9702719 C23.7361458,36.2168385 22.9019792,36.3875384 22.0583333,36.5108217 C21.8877083,36.5297884 21.7644792,36.5392717 21.6317708,36.5582384 C21.41375,36.577205 21.1957292,36.5961717 20.9777083,36.6151384 C20.4658333,36.6530717 19.9444792,36.6530717 19.4326042,36.6530717 C17.1955208,36.6246217 14.9015625,36.1125219 12.8730208,35.1926388 C11.9819792,34.7943389 10.8729167,35.2495388 10.8729167,36.3401218 L10.8729167,50.5082173 L10.8729167,53.2678664 C10.8729167,54.6998493 11.2615625,56.0369989 12.3327083,57.0611985 C13.1858333,57.8862483 14.3707292,58.3414481 15.555625,58.3414481 L16.8258333,58.3414481 L20.7028125,58.3414481 C21.5464583,58.3414481 22.1152083,57.734515 22.1341667,57.0137819 C22.1341667,56.8810153 22.1436458,56.7482486 22.153125,56.615482 C22.1626042,56.4921987 22.1815625,56.4068487 22.2005208,56.3214988 C22.266875,55.9895822 22.3711458,55.6576656 22.494375,55.3447157 C22.3995833,55.581799 22.608125,55.1360825 22.6270833,55.0886658 C22.7029167,54.9369325 22.7977083,54.8041659 22.8830208,54.661916 C22.9304167,54.5955326 22.9778125,54.519666 23.0252083,54.4532827 C23.1484375,54.2920661 23.2621875,54.1782661 23.3759375,54.0549828 C23.4896875,53.9316995 23.6129167,53.8273829 23.745625,53.7135829 C23.8404167,53.6377163 23.9067708,53.5902996 23.973125,53.542883 C24.2480208,53.3532164 24.541875,53.2014831 24.8452083,53.0592331 C24.6177083,53.1635498 25.0727083,52.9833665 25.1201042,52.9738832 C25.28125,52.9169832 25.451875,52.8790499 25.6130208,52.8411165 C25.6983333,52.8221499 25.7836458,52.8031832 25.8689583,52.7936999 C26.0869792,52.7747332 26.2576042,52.7747332 26.4377083,52.7652499 C26.5704167,52.7652499 26.703125,52.7747332 26.8358333,52.7747332 C26.9211458,52.7842166 27.0064583,52.7936999 27.10125,52.8031832 C27.4614583,52.8695665 27.7932292,52.9738832 28.1155208,53.0876831 C27.8785417,53.0023332 28.3240625,53.1919998 28.3714583,53.2109664 C28.523125,53.2868331 28.6653125,53.372183 28.8075,53.457533 C28.8454167,53.485983 29.2435417,53.7704829 29.0444792,53.6187496 C29.1771875,53.7230663 29.3004167,53.8368662 29.4141667,53.9506662 C29.5373958,54.0644661 29.6416667,54.1877494 29.7554167,54.3110327 C29.8122917,54.377416 29.8596875,54.434316 29.9165625,54.5006993 C30.1251042,54.8041659 30.28625,55.0981492 30.4284375,55.4016157 C30.3241667,55.1740158 30.5042708,55.6292157 30.5232292,55.6766323 C30.5801042,55.8378489 30.6180208,56.0085489 30.6559375,56.1697655 C30.6654167,56.2171821 30.7507292,56.7197986 30.7128125,56.4542654 C30.7317708,56.6249653 30.74125,56.8051486 30.74125,56.9853319 C30.7602083,57.706065 31.3289583,58.3129981 32.0683333,58.3129981 L43.7845833,58.3129981 L59.690625,58.3129981 L60.9608333,58.3129981 C61.68125,58.3129981 62.2879167,57.706065 62.2879167,56.9853319 L62.2879167,47.0468017 L62.2879167,28.8198408 L62.2879167,19.6600037 L59.6716667,19.6589438 C59.6716667,22.968626 59.6716667,26.2877916 59.6716667,29.5974739 Z"></path>
                                <path d="M75.7957292,59.6501477 C75.5682292,59.9820643 75.956875,59.4604811 75.7009375,59.773431 C75.6251042,59.8682643 75.5397917,59.9630976 75.4544792,60.0484476 C75.2838542,60.2286309 75.0942708,60.3898475 74.9046875,60.5510641 C75.1132292,60.3803641 74.7909375,60.6269307 74.7719792,60.6364141 C74.6677083,60.7027974 74.5634375,60.7691807 74.4591667,60.835564 C74.3548958,60.9019473 74.2411458,60.9588473 74.1273958,61.0157473 C74.0515625,61.0536806 73.9757292,61.0916139 73.8998958,61.1200639 C73.625,61.2148972 73.3785417,61.2812805 73.1320833,61.3381805 C73.113125,61.3381805 72.6960417,61.4140471 72.9709375,61.3761138 C72.8382292,61.3950805 72.7055208,61.4045638 72.5822917,61.4045638 C72.316875,61.4235305 72.0514583,61.4045638 71.7860417,61.3855972 C71.3689583,61.3476638 72.0325,61.4330138 71.6248958,61.3571472 C71.4542708,61.3286972 71.293125,61.2812805 71.1225,61.2433472 C70.9992708,61.2148972 70.8760417,61.1674806 70.7622917,61.1295472 C70.3736458,60.9967806 70.9803125,61.2433472 70.610625,61.0726473 C70.383125,60.9683306 70.1651042,60.8450473 69.9565625,60.7122807 C69.8522917,60.6458974 69.7480208,60.5700307 69.6532292,60.5036474 C69.87125,60.6553807 69.5489583,60.4182975 69.5394792,60.3993308 C69.3214583,60.2096642 69.1223958,60.0010309 68.9328125,59.7829143 C68.6673958,59.4794478 69.075,59.9820643 68.8380208,59.659631 C68.7621875,59.5553144 68.6958333,59.4509978 68.6389583,59.3466811 C68.50625,59.1380479 68.3925,58.9104479 68.2977083,58.682848 C68.4114583,58.9294146 68.2597917,58.5500814 68.2503125,58.5311147 C68.2123958,58.4078314 68.1744792,58.2845481 68.1460417,58.1612648 C68.108125,58.0379816 68.0891667,57.9146983 68.0607292,57.7819316 C68.0417708,57.6681317 68.0322917,57.5827817 68.0228125,57.4974317 C67.9375,56.4637487 68.1555208,55.6861156 68.6294792,54.8800326 C69.075,54.1118828 69.6911458,53.5808163 70.6201042,53.1350998 C70.9897917,52.9549165 70.383125,53.2204497 70.7717708,53.0781998 C70.895,53.0307831 71.00875,52.9928498 71.1319792,52.9643998 C71.2552083,52.9264665 71.3784375,52.8980165 71.5016667,52.8695665 C71.520625,52.8695665 71.9377083,52.7936999 71.6628125,52.8316332 C71.9282292,52.7936999 72.1936458,52.7936999 72.4590625,52.7936999 C72.5917708,52.7936999 72.7244792,52.8031832 72.8571875,52.8126665 C72.9804167,52.8221499 73.0657292,52.8411165 73.1510417,52.8600832 C74.250625,53.0781998 74.9710417,53.542883 75.729375,54.434316 C75.9947917,54.7377826 75.5871875,54.2351661 75.8241667,54.5575993 C75.9189583,54.6903659 76.0042708,54.8326159 76.0895833,54.9843492 C76.1559375,55.0886658 76.2128125,55.2024658 76.2602083,55.3162658 C76.3076042,55.4205824 76.3360417,55.5059324 76.3644792,55.581799 C76.6014583,56.2361488 76.6298958,56.4921987 76.6298958,57.0896485 L79.2840625,57.0896485 C79.2651042,54.6429493 77.9854167,52.4143667 75.9189583,51.1246337 C73.8145833,49.8064508 71.0940625,49.8443842 68.9422917,51.0013505 C66.7905208,52.1583168 65.4823958,54.462766 65.3686458,56.8715319 C65.2454167,59.3087478 66.5535417,61.5847471 68.5346875,62.93138 C70.6485417,64.3728462 73.4828125,64.3728462 75.7009375,63.1874299 C77.9190625,62.0020136 79.2611326,59.5538217 79.2935417,57.0896485 L76.6298958,57.0896485 C76.6204167,58.0569482 76.411875,58.7492313 75.7957292,59.6501477 Z"></path>
                                <path d="M29.9351017,59.6501477 C29.7076017,59.9820643 30.0962476,59.4604811 29.8403101,59.773431 C29.7644767,59.8682643 29.6791642,59.9630976 29.5938517,60.0484476 C29.4232267,60.2286309 29.2336434,60.3898475 29.0440601,60.5510641 C29.2526017,60.3803641 28.9303101,60.6269307 28.9113517,60.6364141 C28.8070809,60.7027974 28.7028101,60.7691807 28.5985392,60.835564 C28.4942684,60.9019473 28.3805184,60.9588473 28.2667684,61.0157473 C28.1909351,61.0536806 28.1151017,61.0916139 28.0392684,61.1200639 C27.7643726,61.2148972 27.5179142,61.2812805 27.2714559,61.3381805 C27.2524976,61.3381805 26.8354142,61.4140471 27.1103101,61.3761138 C26.9776017,61.3950805 26.8448934,61.4045638 26.7216642,61.4045638 C26.4562476,61.4235305 26.1908309,61.4045638 25.9254142,61.3855972 C25.5083309,61.3476638 26.1718726,61.4330138 25.7642684,61.3571472 C25.5936434,61.3286972 25.4324976,61.2812805 25.2618726,61.2433472 C25.1386434,61.2148972 25.0154142,61.1674806 24.9016642,61.1295472 C24.5130184,60.9967806 25.1196851,61.2433472 24.7499976,61.0726473 C24.5224976,60.9683306 24.3044767,60.8450473 24.0959351,60.7122807 C23.9916642,60.6458974 23.8873934,60.5700307 23.7926017,60.5036474 C24.0106226,60.6553807 23.6883309,60.4182975 23.6788517,60.3993308 C23.4608309,60.2096642 23.2617684,60.0010309 23.0721851,59.7829143 C22.8067684,59.4794478 23.2143726,59.9820643 22.9773934,59.659631 C22.9015601,59.5553144 22.8352059,59.4509978 22.7783309,59.3466811 C22.6456226,59.1380479 22.5318726,58.9104479 22.4370809,58.682848 C22.5508309,58.9294146 22.3991642,58.5500814 22.3896851,58.5311147 C22.3517684,58.4078314 22.3138517,58.2845481 22.2854142,58.1612648 C22.2474976,58.0379816 22.2285392,57.9146983 22.2001017,57.7819316 C22.1811434,57.6681317 22.1716642,57.5827817 22.1621851,57.4974317 C22.0768726,56.4637487 22.2948934,55.6861156 22.7688517,54.8800326 C23.2143726,54.1118828 23.8305184,53.5808163 24.7594767,53.1350998 C25.1291642,52.9549165 24.5224976,53.2204497 24.9111434,53.0781998 C25.0343726,53.0307831 25.1481226,52.9928498 25.2713517,52.9643998 C25.3945809,52.9264665 25.5178101,52.8980165 25.6410392,52.8695665 C25.6599976,52.8695665 26.0770809,52.7936999 25.8021851,52.8316332 C26.0676017,52.7936999 26.3330184,52.7936999 26.5984351,52.7936999 C26.7311434,52.7936999 26.8638517,52.8031832 26.9965601,52.8126665 C27.1197892,52.8221499 27.2051017,52.8411165 27.2904142,52.8600832 C28.3899976,53.0781998 29.1104142,53.542883 29.8687476,54.434316 C30.1341642,54.7377826 29.7265601,54.2351661 29.9635392,54.5575993 C30.0583309,54.6903659 30.1436434,54.8326159 30.2289559,54.9843492 C30.2953101,55.0886658 30.3521851,55.2024658 30.3995809,55.3162658 C30.4469767,55.4205824 30.4754142,55.5059324 30.5038517,55.581799 C30.7408309,56.2361488 30.7692684,56.4921987 30.7692684,57.0896485 L33.4234351,57.0896485 C33.4044767,54.6429493 32.1247892,52.4143667 30.0583309,51.1246337 C27.9539559,49.8064508 25.2334351,49.8443842 23.0816642,51.0013505 C20.9298934,52.1583168 19.6217684,54.462766 19.5080184,56.8715319 C19.3847892,59.3087478 20.6929142,61.5847471 22.6740601,62.93138 C24.7879142,64.3728462 27.6221851,64.3728462 29.8403101,63.1874299 C32.0584351,62.0020136 33.4005051,59.5538217 33.4329142,57.0896485 L30.7692684,57.0896485 C30.7597892,58.0569482 30.5512476,58.7492313 29.9351017,59.6501477 Z"></path>
                                <path d="M68.3830208,40.0322876 L68.3830208,33.9313559 C68.3830208,33.9313559 69.51183,33.9313559 70.4020833,33.9313559 L72.203125,33.9313559 L72.5728125,33.9313559 C72.3073958,33.9218726 72.658125,33.9598059 72.7055208,33.9692892 C72.4495833,33.8934226 72.7434375,33.9977392 72.8097917,34.0261892 C72.5728125,33.8839392 72.8382292,34.0546392 72.885625,34.1115392 C72.6960417,33.9123892 72.9519792,34.2443058 72.9898958,34.3201724 C72.8761458,34.1020558 73.0183333,34.4719057 73.05625,34.5762223 C73.113125,34.7469223 73.1794792,34.9176222 73.2363542,35.0883222 C73.4448958,35.6762887 73.6534375,36.2737385 73.8714583,36.8617049 C74.1178803,37.5529563 74.9900468,40.0293978 74.9900468,40.0293978 L76.8763542,42.6939531 C76.8763542,42.6939531 77.1535344,42.6571207 77.2270833,42.6370531 C77.8811458,42.4568698 78.3930208,41.6887201 78.1560417,41.0059203 C77.3692708,38.7963043 76.5825,36.5961717 75.8052083,34.3865557 C75.6914583,34.0641225 75.5966667,33.7322059 75.4734375,33.419256 C74.9994792,32.1295231 73.8430208,31.2855067 72.4495833,31.2855067 L69.018125,31.2855067 L67.0654167,31.2855067 C66.345,31.2855067 65.7383333,31.8924399 65.7383333,32.613173 L65.7383333,41.3662869 C65.7383333,42.08702 66.345,42.6939531 67.0654167,42.6939531 L76.8763542,42.6939531 L74.9900468,40.0293978 L68.3830208,40.0322876 Z"></path>
                                <path d="M52.2779167,31.2760234 L43.424375,31.2760234 C42.7039583,31.2760234 42.0972917,31.8829565 42.0972917,32.6036896 C42.0972917,33.3244227 42.7039583,33.9313559 43.424375,33.9313559 L52.2779167,33.9313559 C52.9983333,33.9313559 53.605,33.3244227 53.605,32.6036896 C53.605,31.8829565 53.0078125,31.2760234 52.2779167,31.2760234 L52.2779167,31.2760234 L52.2779167,31.2760234 Z"></path>
                                <path d="M52.2779167,40.0291373 L39.7369792,40.0291373 L26.7315625,40.0291373 L26.7220833,40.0291373 C26.0016667,40.0291373 25.395,40.6360704 25.395,41.3568035 C25.395,42.0775366 26.0016667,42.6844698 26.7220833,42.6844698 L39.2630208,42.6844698 L52.2684375,42.6844698 L52.2779167,42.6844698 C52.9983333,42.6844698 53.605,42.0775366 53.605,41.3568035 C53.605,40.6360704 53.0078125,40.0291373 52.2779167,40.0291373 L52.2779167,40.0291373 L52.2779167,40.0291373 Z"></path>
                                <path d="M21.5086592,23.4319527 L21.5086592,10.0733728 L21.5086592,9.88402367 C21.5086592,9.16449704 20.6762251,8.55857988 19.6877095,8.55857988 C18.6991939,8.55857988 17.8667598,9.16449704 17.8667598,9.88402367 L17.8667598,23.2426036 L17.8667598,23.4319527 C17.8667598,24.1514793 18.6991939,24.7573964 19.6877095,24.7573964 C20.6762251,24.7573964 21.5086592,24.1609467 21.5086592,23.4319527 L21.5086592,23.4319527 L21.5086592,23.4319527 Z"></path>
                                <path d="M21.5086592,29.3964497 L21.5086592,28.156213 C21.5086592,27.4366864 20.6762251,26.8307692 19.6877095,26.8307692 C18.6991939,26.8307692 17.8667598,27.4366864 17.8667598,28.156213 L17.8667598,29.3964497 C17.8667598,30.1159763 18.6991939,30.7218935 19.6877095,30.7218935 C20.6762251,30.7218935 21.5086592,30.1254438 21.5086592,29.3964497 L21.5086592,29.3964497 L21.5086592,29.3964497 Z"></path>
                            </g>
                        </g>
                    </g>
                </g>
            </g>
        </g>
    </g>
</svg>