<?xml version="1.0" encoding="UTF-8" standalone="no"?>
<svg width="18px" height="18px" viewBox="0 0 18 18" version="1.1" xmlns="http://www.w3.org/2000/svg" xmlns:xlink="http://www.w3.org/1999/xlink">
    <!-- Generator: Sketch 40 (33762) - http://www.bohemiancoding.com/sketch -->
    <title>tracking-icon-search-blue</title>
    <desc>Created with Sketch.</desc>
    <defs></defs>
    <g id="desktop-round-2" stroke="none" stroke-width="1" fill="none" fill-rule="evenodd">
        <g id="tracking-ui-sprite" transform="translate(-340.000000, -248.000000)" fill="#0051B2">
            <g id="sprite">
                <path d="M357.879153,265.000604 L353.147995,260.269239 C354.247528,258.970263 354.911721,257.291037 354.911721,255.45586 C354.911721,251.338154 351.573566,248 347.45586,248 C343.338154,248 340,251.338154 340,255.45586 C340,259.573566 343.338154,262.911721 347.45586,262.911721 C349.291037,262.911721 350.970263,262.247528 352.269239,261.147788 L357.000604,265.879153 C357.161733,266.040282 357.425381,266.040282 357.586303,265.879153 L357.879153,265.586303 C358.040282,265.425174 358.040282,265.161733 357.879153,265.000604 L357.879153,265.000604 Z M341.242643,255.45586 C341.242643,252.029892 344.029892,249.242643 347.45586,249.242643 C350.881828,249.242643 353.669077,252.029892 353.669077,255.45586 C353.669077,258.881828 350.881828,261.669077 347.45586,261.669077 C344.029892,261.669077 341.242643,258.881828 341.242643,255.45586 L341.242643,255.45586 Z" id="tracking-icon-search-blue"></path>
            </g>
        </g>
    </g>
</svg>