<?xml version="1.0" encoding="UTF-8" standalone="no"?>
<svg width="18px" height="18px" viewBox="0 0 18 18" version="1.1" xmlns="http://www.w3.org/2000/svg" xmlns:xlink="http://www.w3.org/1999/xlink">
    <!-- Generator: Sketch 40.1 (33804) - http://www.bohemiancoding.com/sketch -->
    <title>tracking-icon-search-clear</title>
    <desc>Created with Sketch.</desc>
    <defs></defs>
    <g id="desktop-round-2" stroke="none" stroke-width="1" fill-rule="evenodd">
        <g id="tracking-ui-sprite" transform="translate(-340.000000, -288.000000)">
            <g id="sprite">
                <path d="M357.879153,305.000604 L353.147995,300.269239 C354.247528,298.970263 354.911721,297.291037 354.911721,295.45586 C354.911721,291.338154 351.573566,288 347.45586,288 C343.338154,288 340,291.338154 340,295.45586 C340,299.573566 343.338154,302.911721 347.45586,302.911721 C349.291037,302.911721 350.970263,302.247528 352.269239,301.147788 L357.000604,305.879153 C357.161733,306.040282 357.425381,306.040282 357.586303,305.879153 L357.879153,305.586303 C358.040282,305.425174 358.040282,305.161733 357.879153,305.000604 L357.879153,305.000604 Z M341.242643,295.45586 C341.242643,292.029892 344.029892,289.242643 347.45586,289.242643 C350.881828,289.242643 353.669077,292.029892 353.669077,295.45586 C353.669077,298.881828 350.881828,301.669077 347.45586,301.669077 C344.029892,301.669077 341.242643,298.881828 341.242643,295.45586 L341.242643,295.45586 Z" id="tracking-icon-search-clear"></path>
            </g>
        </g>
    </g>
</svg>
