<?xml version="1.0" encoding="UTF-8" standalone="no"?>
<svg width="18px" height="18px" viewBox="0 0 18 18" version="1.1" xmlns="http://www.w3.org/2000/svg" xmlns:xlink="http://www.w3.org/1999/xlink">
    <!-- Generator: Sketch 40 (33762) - http://www.bohemiancoding.com/sketch -->
    <title>tracking-icon-search-white</title>
    <desc>Created with Sketch.</desc>
    <defs></defs>
    <g id="desktop-round-2" stroke="none" stroke-width="1" fill="none" fill-rule="evenodd">
        <g id="tracking-ui-sprite" transform="translate(-374.000000, -248.000000)" fill="#FFFFFF">
            <g id="sprite">
                <path d="M391.879153,265.000604 L387.147995,260.269239 C388.247528,258.970263 388.911721,257.291037 388.911721,255.45586 C388.911721,251.338154 385.573566,248 381.45586,248 C377.338154,248 374,251.338154 374,255.45586 C374,259.573566 377.338154,262.911721 381.45586,262.911721 C383.291037,262.911721 384.970263,262.247528 386.269239,261.147788 L391.000604,265.879153 C391.161733,266.040282 391.425381,266.040282 391.586303,265.879153 L391.879153,265.586303 C392.040282,265.425174 392.040282,265.161733 391.879153,265.000604 L391.879153,265.000604 Z M375.242643,255.45586 C375.242643,252.029892 378.029892,249.242643 381.45586,249.242643 C384.881828,249.242643 387.669077,252.029892 387.669077,255.45586 C387.669077,258.881828 384.881828,261.669077 381.45586,261.669077 C378.029892,261.669077 375.242643,258.881828 375.242643,255.45586 L375.242643,255.45586 Z" id="tracking-icon-search-white"></path>
            </g>
        </g>
    </g>
</svg>